<?xml version="1.0" standalone="no"?>
<!DOCTYPE svg PUBLIC "-//W3C//DTD SVG 20010904//EN"
 "http://www.w3.org/TR/2001/REC-SVG-20010904/DTD/svg10.dtd">
<svg version="1.0" xmlns="http://www.w3.org/2000/svg"
 width="612.000000pt" height="612.000000pt" viewBox="0 0 612.000000 612.000000"
 preserveAspectRatio="xMidYMid meet">
<metadata>
Created by potrace 1.14, written by Peter Selinger 2001-2017
</metadata>
<g transform="translate(0.000000,612.000000) scale(0.100000,-0.100000)"
fill="#000000" stroke="none">
<path d="M2765 6109 c-279 -27 -607 -109 -860 -214 -145 -60 -332 -153 -420
-210 -223 -143 -268 -175 -405 -291 -564 -479 -939 -1150 -1045 -1869 -9 -60
-18 -123 -21 -140 -10 -58 -13 -531 -3 -620 46 -441 186 -875 396 -1234 458
-782 1207 -1314 2083 -1480 223 -42 334 -50 620 -46 358 4 593 43 915 150
1077 358 1866 1278 2054 2394 31 184 36 260 35 541 -1 273 -17 423 -69 650
-208 905 -812 1667 -1640 2069 -304 148 -589 235 -945 287 -124 18 -559 26
-695 13z"/>
</g>
</svg>
